<svg xmlns="http://www.w3.org/2000/svg" viewBox="0 0 16 16" width="32" height="32" shape-rendering="crispEdges" fill="none" role="img" aria-label="loading-spinner">
  <rect x="5" y="1" width="1" height="1" fill="#2E6DA4" />
  <rect x="6" y="1" width="4" height="1" fill="#5B9BD5" />
  <rect x="3" y="2" width="1" height="1" fill="#2E6DA4" />
  <rect x="4" y="2" width="8" height="1" fill="#5B9BD5" />
  <rect x="2" y="3" width="1" height="1" fill="#2E6DA4" />
  <rect x="3" y="3" width="1" height="1" fill="#5B9BD5" />
  <rect x="10" y="3" width="2" height="1" fill="#5B9BD5" />
  <rect x="1" y="4" width="1" height="1" fill="#2E6DA4" />
  <rect x="2" y="4" width="1" height="1" fill="#5B9BD5" />
  <rect x="12" y="4" width="2" height="1" fill="#5B9BD5" />
  <rect x="1" y="5" width="1" height="1" fill="#2E6DA4" />
  <rect x="2" y="5" width="1" height="1" fill="#5B9BD5" />
  <rect x="12" y="5" width="2" height="1" fill="#5B9BD5" />
  <rect x="1" y="6" width="1" height="1" fill="#2E6DA4" />
  <rect x="2" y="6" width="1" height="1" fill="#5B9BD5" />
  <rect x="12" y="6" width="2" height="1" fill="#5B9BD5" />
  <rect x="1" y="7" width="1" height="1" fill="#2E6DA4" />
  <rect x="2" y="7" width="1" height="1" fill="#5B9BD5" />
  <rect x="12" y="7" width="2" height="1" fill="#5B9BD5" />
  <rect x="1" y="8" width="1" height="1" fill="#2E6DA4" />
  <rect x="2" y="8" width="1" height="1" fill="#5B9BD5" />
  <rect x="12" y="8" width="2" height="1" fill="#5B9BD5" />
  <rect x="1" y="9" width="1" height="1" fill="#2E6DA4" />
  <rect x="2" y="9" width="2" height="1" fill="#5B9BD5" />
  <rect x="12" y="9" width="2" height="1" fill="#5B9BD5" />
  <rect x="1" y="10" width="1" height="1" fill="#2E6DA4" />
  <rect x="2" y="10" width="2" height="1" fill="#5B9BD5" />
  <rect x="4" y="10" width="1" height="1" fill="#AADDFF" />
  <rect x="11" y="10" width="2" height="1" fill="#5B9BD5" />
  <rect x="13" y="10" width="1" height="1" fill="#AADDFF" />
  <rect x="2" y="11" width="1" height="1" fill="#2E6DA4" />
  <rect x="3" y="11" width="2" height="1" fill="#5B9BD5" />
  <rect x="5" y="11" width="1" height="1" fill="#AADDFF" />
  <rect x="10" y="11" width="2" height="1" fill="#5B9BD5" />
  <rect x="12" y="11" width="2" height="1" fill="#AADDFF" />
  <rect x="3" y="12" width="1" height="1" fill="#2E6DA4" />
  <rect x="4" y="12" width="2" height="1" fill="#5B9BD5" />
  <rect x="6" y="12" width="4" height="1" fill="#AADDFF" />
  <rect x="10" y="12" width="1" height="1" fill="#5B9BD5" />
  <rect x="11" y="12" width="2" height="1" fill="#AADDFF" />
  <rect x="5" y="13" width="1" height="1" fill="#2E6DA4" />
  <rect x="6" y="13" width="4" height="1" fill="#AADDFF" />
</svg>
