<svg xmlns="http://www.w3.org/2000/svg" viewBox="0 0 16 16" width="32" height="32" shape-rendering="crispEdges" fill="none" role="img" aria-label="scroll">
  <rect x="3" y="1" width="8" height="1" fill="#8B4513" />
  <rect x="2" y="2" width="1" height="1" fill="#8B4513" />
  <rect x="3" y="2" width="8" height="1" fill="#F5DEB3" />
  <rect x="11" y="2" width="1" height="1" fill="#8B4513" />
  <rect x="2" y="3" width="1" height="1" fill="#8B4513" />
  <rect x="3" y="3" width="7" height="1" fill="#FFF8DC" />
  <rect x="10" y="3" width="1" height="1" fill="#F5DEB3" />
  <rect x="11" y="3" width="1" height="1" fill="#8B4513" />
  <rect x="2" y="4" width="1" height="1" fill="#8B4513" />
  <rect x="3" y="4" width="1" height="1" fill="#FFF8DC" />
  <rect x="4" y="4" width="5" height="1" fill="#8B7355" />
  <rect x="9" y="4" width="1" height="1" fill="#FFF8DC" />
  <rect x="10" y="4" width="1" height="1" fill="#F5DEB3" />
  <rect x="11" y="4" width="1" height="1" fill="#8B4513" />
  <rect x="2" y="5" width="1" height="1" fill="#8B4513" />
  <rect x="3" y="5" width="7" height="1" fill="#FFF8DC" />
  <rect x="10" y="5" width="1" height="1" fill="#F5DEB3" />
  <rect x="11" y="5" width="1" height="1" fill="#8B4513" />
  <rect x="2" y="6" width="1" height="1" fill="#8B4513" />
  <rect x="3" y="6" width="1" height="1" fill="#FFF8DC" />
  <rect x="4" y="6" width="3" height="1" fill="#8B7355" />
  <rect x="7" y="6" width="3" height="1" fill="#FFF8DC" />
  <rect x="10" y="6" width="1" height="1" fill="#F5DEB3" />
  <rect x="11" y="6" width="1" height="1" fill="#8B4513" />
  <rect x="2" y="7" width="1" height="1" fill="#8B4513" />
  <rect x="3" y="7" width="7" height="1" fill="#FFF8DC" />
  <rect x="10" y="7" width="1" height="1" fill="#F5DEB3" />
  <rect x="11" y="7" width="1" height="1" fill="#8B4513" />
  <rect x="2" y="8" width="1" height="1" fill="#8B4513" />
  <rect x="3" y="8" width="1" height="1" fill="#FFF8DC" />
  <rect x="4" y="8" width="5" height="1" fill="#8B7355" />
  <rect x="9" y="8" width="1" height="1" fill="#FFF8DC" />
  <rect x="10" y="8" width="1" height="1" fill="#F5DEB3" />
  <rect x="11" y="8" width="1" height="1" fill="#8B4513" />
  <rect x="2" y="9" width="1" height="1" fill="#8B4513" />
  <rect x="3" y="9" width="7" height="1" fill="#FFF8DC" />
  <rect x="10" y="9" width="1" height="1" fill="#F5DEB3" />
  <rect x="11" y="9" width="1" height="1" fill="#8B4513" />
  <rect x="2" y="10" width="1" height="1" fill="#8B4513" />
  <rect x="3" y="10" width="1" height="1" fill="#FFF8DC" />
  <rect x="4" y="10" width="3" height="1" fill="#8B7355" />
  <rect x="7" y="10" width="3" height="1" fill="#FFF8DC" />
  <rect x="10" y="10" width="1" height="1" fill="#F5DEB3" />
  <rect x="11" y="10" width="1" height="1" fill="#8B4513" />
  <rect x="2" y="11" width="1" height="1" fill="#8B4513" />
  <rect x="3" y="11" width="7" height="1" fill="#FFF8DC" />
  <rect x="10" y="11" width="1" height="1" fill="#F5DEB3" />
  <rect x="11" y="11" width="1" height="1" fill="#8B4513" />
  <rect x="2" y="12" width="1" height="1" fill="#8B4513" />
  <rect x="3" y="12" width="7" height="1" fill="#F5DEB3" />
  <rect x="10" y="12" width="1" height="1" fill="#D2B48C" />
  <rect x="11" y="12" width="1" height="1" fill="#8B4513" />
  <rect x="3" y="13" width="8" height="1" fill="#8B4513" />
</svg>
